<?xml version="1.0" encoding="utf-8"?>
<!-- Generator: Adobe Illustrator 27.9.0, SVG Export Plug-In . SVG Version: 6.00 Build 0)  -->
<svg version="1.1" id="Capa_1" xmlns="http://www.w3.org/2000/svg" xmlns:xlink="http://www.w3.org/1999/xlink" x="0px" y="0px"
	 viewBox="0 0 364.68 364.68" style="enable-background:new 0 0 364.68 364.68;" xml:space="preserve">
<style type="text/css">
	.st0{fill:#FFFFFF;}
</style>
<g>
	<g>
		<circle cx="182.34" cy="182.34" r="163"/>
		<g>
			<g>
				<path class="st0" d="M56.25,214.22c-6.36,1.24-11.71-1.76-12.87-7.74c-1.02-5.27,1.7-9.19,5.81-10.51l0.66,3.39
					c-1.99,0.78-4.44,2.6-3.66,6.64c0.9,4.65,5.19,5.65,9.37,4.84c4.21-0.82,7.81-3.35,6.91-8c-0.79-4.06-3.78-4.98-6.38-4.69
					l-0.66-3.39c4.77-0.44,8.8,2.2,9.83,7.5C66.43,208.24,62.58,212.99,56.25,214.22z"/>
				<path class="st0" d="M52.19,192.38c-6.45,0.06-11.17-4.01-11.23-10.43c-0.06-6.42,4.58-10.58,11.03-10.63
					c6.45-0.06,11.2,4.01,11.26,10.43C63.31,188.17,58.64,192.32,52.19,192.38z M52.02,174.77c-4.41,0.04-8.26,2.09-8.22,7.16
					c0.05,5.07,3.94,7.05,8.35,7.01c4.41-0.04,8.29-2.09,8.25-7.16C60.35,176.7,56.43,174.73,52.02,174.77z"/>
				<path class="st0" d="M63.1,168.93l-21.13-3.69l0.65-3.72l17.97-6.97l0.01-0.06l-16.26-2.84l0.57-3.28l21.13,3.69l-0.65,3.72
					l-17.98,7l-0.01,0.06l16.25,2.84L63.1,168.93z"/>
				<path class="st0" d="M56.5,146.12c-6.1-2.2-9.16-7.51-7.09-13.24c1.82-5.05,6.17-7.03,10.38-6.05l-1.17,3.25
					c-2.11-0.35-5.15-0.04-6.55,3.83c-1.61,4.46,1.56,7.52,5.57,8.96c4.04,1.46,8.43,1.13,10.04-3.33c1.4-3.9-0.69-6.22-3.08-7.3
					l1.17-3.25c4.33,2.07,6.43,6.4,4.6,11.48C68.31,146.2,62.57,148.31,56.5,146.12z"/>
				<path class="st0" d="M74.2,129.76l-18.75-10.43l7.38-13.27l2.49,1.39l-5.78,10.38l5.32,2.96l5.06-9.1l2.49,1.39l-5.06,9.1
					l5.95,3.31l5.92-10.65l2.49,1.39L74.2,129.76z"/>
				<path class="st0" d="M83.08,114.34l-16.95-13.15l5.48-7.06c2.48-3.2,5.8-4.39,9.35-1.63c3.55,2.76,3.2,6.25,0.72,9.44
					l-3.46,4.46l6.87,5.33L83.08,114.34z M79.34,100.31c1.53-1.97,1.42-3.64-0.47-5.11c-1.92-1.49-3.57-1.18-5.1,0.79l-3.37,4.34
					l5.57,4.32L79.34,100.31z"/>
				<path class="st0" d="M97.76,97.06L84.89,83.63l-5.01,4.8l-1.97-2.06l12.42-11.89l1.97,2.06l-5.01,4.8l12.87,13.43L97.76,97.06z"
					/>
				<path class="st0" d="M146.31,68.17l2.84-22.83l2.65-0.67l-2.83,22.83L146.31,68.17z"/>
				<path class="st0" d="M153.52,66.24l4.29-22.6l2.69-0.49l-4.29,22.59L153.52,66.24z"/>
				<path class="st0" d="M207.34,66.25l6.45-20.46l7.79,2.45c5.67,1.78,7.95,6.53,5.88,13.11c-2.07,6.58-6.6,9.15-12.26,7.37
					L207.34,66.25z M215.84,65.94c4.75,1.5,7.1-1.67,8.34-5.62c1.24-3.95,1.14-7.92-3.61-9.41l-4.49-1.42l-4.73,15.03L215.84,65.94z
					"/>
				<path class="st0" d="M226.46,72.67l9.64-19.16l13.56,6.82l-1.28,2.55l-10.61-5.34l-2.74,5.44l9.3,4.68l-1.28,2.55l-9.3-4.68
					l-3.06,6.08l10.88,5.48l-1.28,2.55L226.46,72.67z"/>
				<path class="st0" d="M245.28,74.17l2.79,1.98c-1.47,2.49-1.21,5.07,2.06,7.4c2.81,2,4.53,1.39,5.67-0.2
					c1.58-2.22,0.1-3.76-2.5-6.83c-2.21-2.68-4.59-5.7-2.23-9.03c2.16-3.03,5.74-3.09,9.5-0.41c3.98,2.84,5.13,6.71,2.89,10.42
					l-2.79-1.98c1.2-2.31,0.82-4.31-1.72-6.12c-2.2-1.57-3.9-1.56-4.98-0.05c-1.39,1.95,0.14,3.68,1.99,5.84
					c2.76,3.26,5.36,6.33,2.74,10.01c-2.14,3-5.77,3.81-10.14,0.69C244.14,82.75,242.67,78.24,245.28,74.17z"/>
				<path class="st0" d="M256.92,91.96l14.27-16.01l2.46,2.19l-14.27,16.01L256.92,91.96z"/>
				<path class="st0" d="M269.63,88.55c4.84-4.26,10.95-4.4,14.99,0.2c3.66,4.17,3.38,8.34,0.77,11.55l-2.28-2.59
					c1.65-2.21,1.45-4.71-0.65-7.1c-3.13-3.56-7.54-2.12-10.55,0.54c-3.04,2.68-5.33,6.52-2.02,10.29c2.34,2.66,6.05,3.15,8.75,0.82
					l-4.18-4.75l2.07-1.82l6.4,7.28l-8.42,7.41l-1.51-1.71l1.7-2.57l-0.04-0.04c-2.63,0.32-4.86-0.4-7.02-2.85
					C263.56,98.53,264.77,92.83,269.63,88.55z"/>
				<path class="st0" d="M276.01,112.57l18.37-11.08l1.95,3.23l-8.98,17.05l0.03,0.05l14.13-8.53l1.72,2.85l-18.37,11.08L282.9,124
					l8.97-17.08l-0.03-0.05l-14.13,8.52L276.01,112.57z"/>
				<path class="st0" d="M297.36,174.51l21.48,8.22l0.01,2.73l-21.48-8.22L297.36,174.51z"/>
				<path class="st0" d="M297.5,182l20.91,9.58l-0.16,2.73l-20.91-9.58L297.5,182z"/>
				<path class="st0" d="M282,239.58l17.54,12.35l-2.51,3.56l-17.34-4.66l-0.03,0.05l10.21,14.79l-2.5,3.56l-17.53-12.35l1.87-2.65
					l13.61,9.59l0.03-0.05l-10.21-14.42l1.57-2.23l17.02,4.76l0.03-0.05l-13.61-9.59L282,239.58z"/>
				<path class="st0" d="M267.41,259.24l15.03,15.3l-10.83,10.63l-2-2.03l8.47-8.32l-4.27-4.34l-7.42,7.29l-2-2.03l7.42-7.29
					l-4.77-4.86l-8.69,8.53l-2-2.03L267.41,259.24z"/>
				<path class="st0" d="M256.33,270.2l0.54,13.13l11.63,4.55l-2.97,2.15l-8.79-3.65l-0.02,0.02l0.69,9.5l-2.94,2.13l-0.65-12.42
					l-12.22-4.76l3.11-2.25l9.27,3.85l0.02-0.02l-0.8-9.97L256.33,270.2z"/>
				<path class="st0" d="M240.08,281.37l10.69,18.6l-2.86,1.65l-10.69-18.6L240.08,281.37z"/>
				<path class="st0" d="M239.31,294.43c2.56,5.95,0.77,11.82-4.83,14.22c-4.93,2.12-9.34,0.29-11.51-3.45l3.17-1.36
					c1.19,1.78,3.49,3.79,7.27,2.17c4.35-1.87,4.42-6.28,2.74-10.19c-1.69-3.94-4.94-6.92-9.29-5.05c-3.8,1.64-4.06,4.75-3.23,7.23
					l-3.17,1.36c-1.44-4.57,0.28-9.07,5.24-11.2C231.31,285.76,236.76,288.5,239.31,294.43z"/>
				<path class="st0" d="M218.83,303.05c1.44,6.29-1.52,11.76-7.78,13.2c-6.26,1.44-11.31-2.21-12.75-8.49s1.51-11.79,7.77-13.23
					C212.34,293.1,217.4,296.77,218.83,303.05z M201.67,306.99c0.99,4.3,3.81,7.62,8.75,6.49c4.94-1.13,6.04-5.35,5.05-9.65
					c-0.99-4.3-3.81-7.65-8.75-6.52C201.78,298.44,200.69,302.69,201.67,306.99z"/>
				<path class="st0" d="M188.53,308.67c-0.06,6.48-4.06,11.12-10.15,11.07c-5.37-0.05-8.67-3.5-9.14-7.79l3.45,0.03
					c0.37,2.1,1.67,4.88,5.77,4.91c4.74,0.04,6.58-3.96,6.61-8.22c0.04-4.29-1.73-8.32-6.46-8.37c-4.14-0.04-5.63,2.71-5.87,5.32
					l-3.45-0.03c0.52-4.76,3.91-8.18,9.31-8.13C184.7,297.5,188.59,302.22,188.53,308.67z"/>
				<path class="st0" d="M167.04,297.15l-2.71,21.28l-3.28-0.42l2.71-21.28L167.04,297.15z"/>
				<path class="st0" d="M154.95,295.14l-4.25,18.11l6.75,1.59l-0.65,2.78l-16.74-3.93l0.65-2.78l6.75,1.59l4.25-18.11
					L154.95,295.14z"/>
				<path class="st0" d="M137.91,290.01l-3.2,7.96l2.33,14.81l-3.31-1.33l-1.52-11.67l-0.05-0.02l-9.17,7.38l-3.29-1.32l11.93-9.08
					l3.2-7.96L137.91,290.01z"/>
				<path class="st0" d="M95.38,261.89l-21.63,7.84l-1.79-2.06l21.63-7.84L95.38,261.89z"/>
				<path class="st0" d="M90.36,256.31l-22.08,6.43l-1.66-2.17l22.09-6.42L90.36,256.31z"/>
			</g>
		</g>
	</g>
</g>
</svg>
