<?xml version="1.0" encoding="utf-8"?>
<!-- Generator: Adobe Illustrator 27.9.0, SVG Export Plug-In . SVG Version: 6.00 Build 0)  -->
<svg version="1.1" id="Capa_1" xmlns="http://www.w3.org/2000/svg" xmlns:xlink="http://www.w3.org/1999/xlink" x="0px" y="0px"
	 viewBox="0 0 17 17" style="enable-background:new 0 0 17 17;" xml:space="preserve">
<style type="text/css">
	.st0{fill:#FFFFFF;}
</style>
<g>
	<circle cx="8.5" cy="8.5" r="8"/>
</g>
<g>
	<path class="st0" d="M8.33,9.34c0.32,0,0.57-0.1,0.75-0.32c0.18-0.21,0.27-0.5,0.27-0.88c0-0.36-0.09-0.65-0.27-0.86
		C8.9,7.07,8.65,6.96,8.33,6.96c-0.32,0-0.58,0.11-0.76,0.32c-0.18,0.21-0.28,0.5-0.28,0.87c0,0.37,0.09,0.66,0.28,0.87
		C7.76,9.23,8.01,9.34,8.33,9.34 M8.28,12.38c-0.69,0-1.29-0.13-1.81-0.41l0.2-0.97c0.26,0.13,0.52,0.23,0.79,0.29
		c0.26,0.06,0.53,0.09,0.79,0.09c0.37,0,0.65-0.09,0.84-0.26c0.18-0.17,0.28-0.44,0.28-0.79V9.34l0.1,0.05
		C9.38,9.55,9.28,9.7,9.13,9.85c-0.14,0.14-0.32,0.26-0.52,0.35c-0.2,0.09-0.42,0.13-0.66,0.13c-0.38,0-0.72-0.09-1.01-0.27
		C6.65,9.88,6.42,9.62,6.25,9.29C6.08,8.97,6,8.58,6,8.15C6,7.71,6.08,7.33,6.25,7c0.17-0.32,0.4-0.58,0.69-0.76
		c0.29-0.18,0.63-0.28,1.01-0.28c0.36,0,0.67,0.09,0.95,0.26C9.17,6.4,9.35,6.63,9.45,6.92L9.35,7V6.07h1.29v4.17
		c0,0.7-0.2,1.23-0.6,1.6C9.64,12.2,9.06,12.38,8.28,12.38"/>
	<path class="st0" d="M6.94,4.96C6.94,4.52,7.03,4.2,7.22,4C7.4,3.8,7.62,3.7,7.88,3.7c0.15,0,0.29,0.04,0.43,0.11
		c0.13,0.07,0.26,0.15,0.38,0.22c0.12,0.07,0.24,0.11,0.35,0.11c0.1,0,0.19-0.04,0.26-0.11c0.07-0.07,0.11-0.18,0.12-0.31h0.55
		c0,0.44-0.09,0.76-0.28,0.96c-0.18,0.2-0.41,0.3-0.66,0.3c-0.15,0-0.29-0.04-0.43-0.11C8.47,4.8,8.34,4.72,8.22,4.65
		C8.1,4.57,7.98,4.54,7.87,4.54c-0.1,0-0.19,0.04-0.26,0.11C7.55,4.72,7.51,4.83,7.5,4.96H6.94z"/>
	<rect x="11.58" y="9.06" class="st0" width="1.42" height="1.39"/>
</g>
</svg>
