<?xml version="1.0" encoding="utf-8"?>
<!-- Generator: Adobe Illustrator 27.9.0, SVG Export Plug-In . SVG Version: 6.00 Build 0)  -->
<svg version="1.1" id="Capa_1" xmlns="http://www.w3.org/2000/svg" xmlns:xlink="http://www.w3.org/1999/xlink" x="0px" y="0px"
	 viewBox="0 0 100 100" style="enable-background:new 0 0 100 100;" xml:space="preserve">
<g>
	<path d="M83.97,50.07c0,9.52-3.36,17.64-10.08,24.36c-6.72,6.72-14.84,10.08-24.36,10.08c-9.52,0-17.65-3.36-24.39-10.08
		C18.4,67.7,15.03,59.58,15.03,50.07c0-9.55,3.37-17.69,10.11-24.42c6.74-6.72,14.87-10.08,24.39-10.08
		c9.52,0,17.64,3.36,24.36,10.08C80.61,32.38,83.97,40.51,83.97,50.07z M79,50.07c0-8.15-2.88-15.1-8.62-20.85
		s-12.7-8.62-20.84-8.62c-8.15,0-15.1,2.88-20.85,8.62c-5.75,5.75-8.62,12.7-8.62,20.85c0,8.11,2.87,15.04,8.62,20.79
		c5.75,5.75,12.7,8.62,20.85,8.62c8.15,0,15.09-2.88,20.84-8.62S79,58.18,79,50.07z M40.66,42.93c0,1.19-0.42,2.22-1.27,3.08
		s-1.88,1.3-3.11,1.3c-1.19,0-2.22-0.43-3.08-1.3s-1.3-1.89-1.3-3.08c0-1.23,0.43-2.26,1.3-3.11s1.89-1.27,3.08-1.27
		c1.22,0,2.26,0.42,3.11,1.27S40.66,41.7,40.66,42.93z M33.63,61.15l3.35-1.95c2.85,5.19,7.03,7.79,12.55,7.79s9.68-2.6,12.49-7.79
		l3.41,1.95c-1.8,3.42-4.03,6.04-6.68,7.84c-2.65,1.8-5.72,2.7-9.22,2.7c-3.53,0-6.62-0.9-9.25-2.7
		C37.65,67.19,35.43,64.58,33.63,61.15z M67.1,42.93c0,1.19-0.42,2.22-1.27,3.08c-0.85,0.87-1.88,1.3-3.11,1.3
		c-1.19,0-2.22-0.43-3.08-1.3s-1.3-1.89-1.3-3.08c0-1.23,0.43-2.26,1.3-3.11s1.89-1.27,3.08-1.27c1.23,0,2.26,0.42,3.11,1.27
		C66.68,40.67,67.1,41.7,67.1,42.93z"/>
</g>
</svg>
