<?xml version="1.0" encoding="utf-8"?>
<!-- Generator: Adobe Illustrator 27.9.0, SVG Export Plug-In . SVG Version: 6.00 Build 0)  -->
<svg version="1.1" id="Capa_1" xmlns="http://www.w3.org/2000/svg" xmlns:xlink="http://www.w3.org/1999/xlink" x="0px" y="0px"
	 viewBox="0 0 364.68 364.68" style="enable-background:new 0 0 364.68 364.68;" xml:space="preserve">
<style type="text/css">
	.st0{fill:#FFFFFF;}
</style>
<g>
	<g>
		<path class="st0" d="M180.03,180.22c2.18,0,3.9-0.72,5.15-2.17c1.25-1.45,1.87-3.46,1.87-6.04c0-2.5-0.62-4.48-1.85-5.95
			c-1.23-1.47-2.96-2.2-5.18-2.2c-2.22,0-3.97,0.73-5.24,2.17c-1.27,1.45-1.9,3.44-1.9,5.98c0,2.54,0.64,4.54,1.93,6.01
			C176.11,179.49,177.85,180.22,180.03,180.22 M179.67,201.23c-4.76,0-8.93-0.93-12.5-2.8l1.37-6.67c1.78,0.91,3.59,1.59,5.42,2.02
			c1.82,0.44,3.63,0.65,5.42,0.65c2.58,0,4.5-0.59,5.77-1.78c1.27-1.19,1.91-3.02,1.91-5.48v-6.96l0.71,0.36
			c-0.48,1.11-1.21,2.16-2.2,3.16c-0.99,0.99-2.19,1.8-3.6,2.41c-1.41,0.62-2.93,0.92-4.55,0.92c-2.62,0-4.94-0.63-6.96-1.88
			c-2.02-1.25-3.61-3-4.76-5.27c-1.15-2.26-1.73-4.9-1.73-7.91c0-3.02,0.58-5.64,1.73-7.89c1.15-2.24,2.74-4,4.76-5.27
			c2.02-1.27,4.34-1.91,6.96-1.91c2.46,0,4.63,0.61,6.52,1.82c1.88,1.21,3.16,2.81,3.84,4.79l-0.71,0.54v-6.37h8.93v28.75
			c0,4.84-1.38,8.51-4.14,11.01C189.09,199.98,185.03,201.23,179.67,201.23"/>
		<path class="st0" d="M170.46,150.03c0-3.02,0.64-5.22,1.91-6.61c1.27-1.39,2.8-2.08,4.58-2.08c1.03,0,2.02,0.26,2.95,0.77
			c0.93,0.52,1.82,1.03,2.65,1.55c0.83,0.51,1.63,0.77,2.38,0.77c0.71,0,1.31-0.26,1.78-0.77c0.48-0.51,0.75-1.23,0.83-2.14h3.81
			c0,3.02-0.64,5.22-1.91,6.61s-2.8,2.08-4.58,2.08c-1.03,0-2.01-0.26-2.95-0.77c-0.93-0.51-1.82-1.03-2.65-1.55
			c-0.83-0.51-1.63-0.77-2.38-0.77c-0.71,0-1.31,0.26-1.78,0.77c-0.47,0.52-0.75,1.23-0.83,2.14H170.46z"/>
		<rect x="202.47" y="178.32" class="st0" width="9.76" height="9.58"/>
	</g>
</g>
</svg>
