<svg viewBox="0 0 48.26 59.89" xmlns="http://www.w3.org/2000/svg"><g fill="#fff"><path d="m16.06 38.88c2.18 0 3.9-.72 5.15-2.17s1.87-3.46 1.87-6.04-.62-4.48-1.85-5.95-2.96-2.2-5.18-2.2-3.97.73-5.24 2.17c-1.27 1.45-1.9 3.44-1.9 5.98s.64 4.54 1.93 6.01c1.3 1.47 3.04 2.2 5.22 2.2m-.36 21.01c-4.76 0-8.93-.93-12.5-2.8l1.37-6.67c1.78.91 3.59 1.59 5.42 2.02 1.82.44 3.63.65 5.42.65 2.58 0 4.5-.59 5.77-1.78s1.91-3.02 1.91-5.48v-6.96l.71.36c-.48 1.11-1.21 2.16-2.2 3.16-.99.99-2.19 1.8-3.6 2.41-1.41.62-2.93.92-4.55.92-2.62 0-4.94-.63-6.96-1.88s-3.61-3-4.76-5.27c-1.15-2.26-1.73-4.9-1.73-7.91s.58-5.64 1.73-7.89c1.15-2.24 2.74-4 4.76-5.27s4.34-1.91 6.96-1.91c2.46 0 4.63.61 6.52 1.82 1.88 1.21 3.16 2.81 3.84 4.79l-.71.54v-6.37h8.93v28.75c0 4.84-1.38 8.51-4.14 11.01-2.77 2.51-6.83 3.76-12.19 3.76"/><path d="m6.49 8.69c0-3.02.64-5.22 1.91-6.61s2.8-2.08 4.58-2.08c1.03 0 2.02.26 2.95.77.93.52 1.82 1.03 2.65 1.55.83.51 1.63.77 2.38.77.71 0 1.31-.26 1.78-.77.48-.51.75-1.23.83-2.14h3.81c0 3.02-.64 5.22-1.91 6.61s-2.8 2.08-4.58 2.08c-1.03 0-2.01-.26-2.95-.77-.93-.51-1.82-1.03-2.65-1.55-.83-.51-1.63-.77-2.38-.77-.71 0-1.31.26-1.78.77-.47.52-.75 1.23-.83 2.14h-3.81z"/><path d="m38.5 36.98h9.76v9.58h-9.76z"/></g></svg>